HIERARCHY
ROOT Hips
{
	OFFSET 0.00 0.00 0.00
	CHANNELS 6 Xposition Yposition Zposition Xrotation Yrotation Zrotation
	JOINT Spine
	{
		OFFSET 0.00000 3.24121 0.00000
		CHANNELS 3 Xrotation Yrotation Zrotation
		JOINT Head
		{
			OFFSET 0.00000 18.38296 0.00000
			CHANNELS 3 Xrotation Yrotation Zrotation
			End Site
			{
				OFFSET 0.00000 4.52755 0.00000
			}
		}
		JOINT LeftShoulder
		{
			OFFSET 0.00000 12.82826 0.00000
			CHANNELS 3 Xrotation Yrotation Zrotation
			JOINT LeftArm
			{
				OFFSET 7.74805 0.00000 0.00000
				CHANNELS 3 Xrotation Yrotation Zrotation
				JOINT LeftForeArm
				{
					OFFSET 10.63561 0.00000 0.00000
					CHANNELS 3 Yrotation Zrotation Xrotation
					JOINT LeftHand
					{
						OFFSET 8.34675 0.00000 0.00000
						CHANNELS 3 Xrotation Yrotation Zrotation
						JOINT LeftHandThumb1
						{
							OFFSET 0.00000 0.00000 0.00000
							CHANNELS 3 Xrotation Zrotation Yrotation
							End Site
							{
								OFFSET 0.00000 0.00000 3.93700
							}
						}
						End Site
						{
							OFFSET 3.93700 0.00000 0.00000
						}
					}
				}
			}
		}
		JOINT RightShoulder
		{
			OFFSET 0.00000 12.82826 0.00000
			CHANNELS 3 Xrotation Yrotation Zrotation
			JOINT RightArm
			{
				OFFSET -7.74805 0.00000 0.00000
				CHANNELS 3 Xrotation Yrotation Zrotation
				JOINT RightForeArm
				{
					OFFSET -10.63561 0.00000 0.00000
					CHANNELS 3 Yrotation Zrotation Xrotation
					JOINT RightHand
					{
						OFFSET -8.34675 0.00000 0.00000
						CHANNELS 3 Xrotation Yrotation Zrotation
						JOINT RightHandThumb1
						{
							OFFSET 0.00000 0.00000 0.00000
							CHANNELS 3 Xrotation Zrotation Yrotation
							End Site
							{
								OFFSET 0.00000 0.00000 3.93700
							}
						}
						End Site
						{
							OFFSET -3.93700 0.00000 0.00000
						}
					}
				}
			}
		}
	}
	JOINT LeftUpLeg
	{
		OFFSET 3.43402 0.00000 0.00000
		CHANNELS 3 Xrotation Yrotation Zrotation
		JOINT LeftLeg
		{
			OFFSET 0.00000 -15.71302 0.00000
			CHANNELS 3 Xrotation Yrotation Zrotation
			JOINT LeftFoot
			{
				OFFSET 0.00000 -14.43512 0.00000
				CHANNELS 3 Xrotation Yrotation Zrotation
				JOINT LeftToeBase
				{
					OFFSET 0.00000 -1.27828 4.77061
					CHANNELS 3 Xrotation Yrotation Zrotation
					End Site
					{
						OFFSET 0.00000 0.00000 2.95275
					}
				}
			}
		}
	}
	JOINT RightUpLeg
	{
		OFFSET -3.43402 0.00000 0.00000
		CHANNELS 3 Xrotation Yrotation Zrotation
		JOINT RightLeg
		{
			OFFSET 0.00000 -15.71302 0.00000
			CHANNELS 3 Xrotation Yrotation Zrotation
			JOINT RightFoot
			{
				OFFSET 0.00000 -14.43512 0.00000
				CHANNELS 3 Xrotation Yrotation Zrotation
				JOINT RightToeBase
				{
					OFFSET 0.00000 -1.27828 4.77061
					CHANNELS 3 Xrotation Yrotation Zrotation
					End Site
					{
						OFFSET 0.00000 0.00000 2.95275
					}
				}
			}
		}
	}
}
MOTION
Frames: 11
Frame Time: 0.008333
 -0.7213 32.8295 -3.7701 38.0053 2.6789 -0.9899 -44.8457 3.8888 -1.9780 8.4518 -16.9246 -11.2068 41.0846 17.6577 7.7882 -66.0921 -46.9186 -106.9084 -5.5349 0.0000 8.1082 2.4328 18.5443 -7.6090 33.1476 -0.0000 26.2537 -12.0651 -20.8253 -49.5110 -118.1624 -24.2419 40.4075 135.2568 0.0000 -86.7568 -2.9104 23.1644 7.3641 32.8623 0.0000 -24.3270 -32.7570 4.8406 2.0721 -0.2605 -0.0000 -0.0000 -1.6107 0.3764 -2.9294 1.7097 -0.0000 0.0000 -32.1162 -13.6899 -1.5673 -2.5802 0.0000 0.0000 -3.0405 -10.7721 16.5562 16.0134 -0.0000 0.0000
 -0.7246 32.8295 -3.7737 38.0052 2.6685 -0.9927 -44.8318 3.8863 -2.0032 8.4028 -17.0514 -11.0610 41.1020 17.6599 7.7820 -66.0966 -46.9427 -106.9749 -5.4697 0.0000 8.1208 2.5207 18.5068 -7.8960 33.1476 -0.0000 26.2537 -12.0414 -20.8334 -49.4987 -118.1118 -24.2167 40.4169 135.1921 0.0000 -86.5974 -2.9134 23.1165 7.3861 32.8623 0.0000 -24.3270 -32.7636 4.8444 2.0875 -0.2603 0.0000 0.0000 -1.6022 0.3482 -2.8724 1.6734 0.0000 0.0000 -32.1201 -13.7120 -1.5536 -2.5833 0.0000 0.0000 -3.0389 -10.7451 16.5668 16.0290 0.0000 0.0000
 -0.7266 32.8291 -3.7775 38.0083 2.6526 -0.9902 -44.8166 3.8915 -2.0214 8.3305 -17.1994 -10.9282 41.1186 17.6681 7.7547 -66.0830 -46.9700 -107.0247 -5.4395 0.0000 8.1352 2.4874 18.4523 -7.8148 33.1476 -0.0000 26.2537 -12.0192 -20.8470 -49.4970 -118.1075 -24.1864 40.4054 135.1236 0.0000 -86.4292 -2.9198 23.0812 7.4126 32.8623 0.0000 -24.3270 -32.7712 4.8351 2.0919 -0.2656 0.0000 0.0000 -1.6071 0.4199 -2.8975 1.6988 -0.0000 0.0000 -32.1238 -13.7408 -1.5427 -2.5978 -0.0000 -0.0000 -3.0217 -10.6959 16.5617 16.0286 -0.0000 0.0000
 -0.7295 32.8296 -3.7826 38.0141 2.6284 -0.9883 -44.8035 3.9127 -2.0437 8.2921 -17.3410 -10.7810 41.1481 17.6717 7.7341 -66.0666 -46.9629 -107.0473 -5.3966 0.0000 8.2984 2.5109 18.2963 -7.9520 33.1476 -0.0000 26.2537 -11.9964 -20.8663 -49.4779 -118.1006 -24.1624 40.3886 135.0748 0.0000 -86.1909 -2.8461 22.9369 7.2698 32.8623 0.0000 -24.3270 -32.7855 4.8377 2.1117 -0.2588 -0.0000 -0.0000 -1.6144 0.3936 -2.8524 1.6956 0.0000 0.0000 -32.1335 -13.7446 -1.5274 -2.6104 0.0000 0.0000 -2.9862 -10.6718 16.6225 16.0057 -0.0000 -0.0000
 -0.7316 32.8292 -3.7884 38.0201 2.5958 -0.9836 -44.7860 3.9453 -2.0576 8.2431 -17.4692 -10.6473 41.1493 17.6759 7.7323 -66.0145 -46.9587 -107.0776 -5.4077 0.0000 8.3331 2.4968 18.2531 -7.9257 33.1476 -0.0000 26.2537 -12.0133 -20.8822 -49.4759 -118.0816 -24.1303 40.4056 135.0399 0.0000 -86.0131 -2.8764 22.9185 7.3519 32.8623 0.0000 -24.3270 -32.8052 4.8574 2.1180 -0.2560 0.0000 -0.0000 -1.6398 0.4912 -2.9427 1.7886 0.0000 -0.0000 -32.1475 -13.7300 -1.5098 -2.6129 -0.0000 0.0000 -2.9949 -10.6484 16.5750 16.0324 -0.0000 -0.0000
 -0.7340 32.8300 -3.7937 38.0375 2.5565 -0.9572 -44.7813 4.0163 -2.0886 8.1948 -17.6312 -10.5123 41.1396 17.6577 7.7443 -65.8985 -46.8870 -107.0430 -5.4629 0.0000 8.3724 2.5222 18.3269 -7.9745 33.1476 -0.0000 26.2537 -12.0139 -20.9253 -49.4909 -118.0568 -24.1101 40.3840 135.0440 0.0000 -85.8682 -2.8154 22.8624 7.2140 32.8623 0.0000 -24.3270 -32.8255 4.8635 2.1221 -0.2545 0.0000 -0.0000 -1.6162 0.5030 -2.8717 1.7108 -0.0000 -0.0000 -32.1836 -13.7176 -1.5105 -2.6147 -0.0000 0.0000 -2.9592 -10.6116 16.6276 16.0307 -0.0000 -0.0000
 -0.7356 32.8297 -3.7990 38.0446 2.5280 -0.9499 -44.7663 4.0439 -2.1072 8.1506 -17.7744 -10.3946 41.1500 17.6640 7.7328 -65.8352 -46.8451 -107.0248 -5.4954 0.0000 8.3454 2.5451 18.2950 -8.0594 33.1476 -0.0000 26.2537 -12.0140 -20.9477 -49.5003 -118.0424 -24.0448 40.3789 135.0536 0.0000 -85.8397 -2.8448 22.8988 7.2778 32.8623 0.0000 -24.3270 -32.8443 4.8598 2.1308 -0.2481 -0.0000 -0.0000 -1.6376 0.5607 -2.9180 1.7614 0.0000 0.0000 -32.2053 -13.7256 -1.4980 -2.6090 0.0000 -0.0000 -2.9580 -10.5925 16.6173 16.0449 0.0000 -0.0000
 -0.7386 32.8299 -3.8045 38.0546 2.4876 -0.9343 -44.7546 4.0845 -2.1269 8.1098 -17.9167 -10.2829 41.1570 17.6604 7.7313 -65.7372 -46.8080 -106.9955 -5.5616 0.0000 8.2071 2.5020 18.3279 -7.9112 33.1476 -0.0000 26.2537 -12.0020 -20.9708 -49.5166 -118.0125 -23.9772 40.3177 135.0847 0.0000 -85.8245 -2.8398 22.9044 7.2634 32.8623 0.0000 -24.3270 -32.8575 4.8686 2.1474 -0.2471 0.0000 0.0000 -1.6365 0.5549 -2.8620 1.7782 -0.0000 -0.0000 -32.2233 -13.7063 -1.4843 -2.6189 -0.0000 0.0000 -2.9425 -10.5656 16.6379 16.0694 -0.0000 -0.0000
 -0.7409 32.8300 -3.8096 38.0596 2.4556 -0.9212 -44.7424 4.1111 -2.1588 8.0871 -18.0673 -10.1472 41.1920 17.6762 7.7345 -65.6909 -46.7323 -106.9802 -5.5893 0.0000 8.2760 2.4786 18.2749 -7.8597 33.1476 -0.0000 26.2537 -11.9876 -20.9695 -49.5189 -117.9902 -23.9222 40.2717 135.1254 0.0000 -85.8293 -2.8351 22.8827 7.2580 32.8623 0.0000 -24.3270 -32.8682 4.8624 2.1522 -0.2510 0.0000 0.0000 -1.6489 0.6346 -2.8971 1.8374 -0.0000 0.0000 -32.2355 -13.7018 -1.4764 -2.6279 -0.0000 -0.0000 -2.9180 -10.5353 16.6465 16.0600 -0.0000 -0.0000
 -0.7430 32.8302 -3.8147 38.0626 2.4273 -0.9048 -44.7296 4.1416 -2.1835 8.0511 -18.2578 -10.0362 41.2003 17.6654 7.7413 -65.6045 -46.6981 -106.9508 -5.6477 0.0000 8.2434 2.4585 18.3372 -7.7712 33.1476 -0.0000 26.2537 -11.9897 -20.9722 -49.5333 -117.9514 -23.8395 40.2780 135.1902 0.0000 -85.6036 -2.7408 22.9577 6.9971 32.8623 0.0000 -24.3270 -32.8814 4.8818 2.1565 -0.2416 -0.0000 0.0000 -1.6446 0.6475 -2.8969 1.7965 -0.0000 0.0000 -32.2477 -13.6813 -1.4707 -2.6349 -0.0000 -0.0000 -2.9085 -10.5118 16.6494 16.0296 0.0000 -0.0000
 -0.7455 32.8301 -3.8193 38.0693 2.3970 -0.8919 -44.7190 4.1528 -2.2074 8.0173 -18.4001 -9.9213 41.2443 17.6916 7.7245 -65.5843 -46.6516 -106.9336 -5.6711 0.0000 8.4219 2.5052 18.3536 -7.9105 33.1476 -0.0000 26.2537 -11.9753 -21.0106 -49.5530 -117.9729 -23.8353 40.2844 135.2287 0.0000 -85.5270 -2.7420 22.8901 7.0197 32.8623 0.0000 -24.3270 -32.8894 4.8900 2.1655 -0.2470 -0.0000 0.0000 -1.6498 0.6707 -2.8956 1.8299 0.0000 -0.0000 -32.2560 -13.6754 -1.4602 -2.6546 0.0000 0.0000 -2.8830 -10.4825 16.6702 16.0584 -0.0000 -0.0000
